<?xml version="1.0" encoding="UTF-8" standalone="no"?>
<!DOCTYPE svg PUBLIC "-//W3C//DTD SVG 1.1//EN"
 "http://www.w3.org/Graphics/SVG/1.1/DTD/svg11.dtd">
<!-- Generated by graphviz version 2.43.0 (0)
 -->
<!-- Title: %3 Pages: 1 -->
<svg width="551pt" height="451pt"
 viewBox="0.00 0.00 551.34 451.00" xmlns="http://www.w3.org/2000/svg" xmlns:xlink="http://www.w3.org/1999/xlink">
<g id="graph0" class="graph" transform="scale(1 1) rotate(0) translate(4 447)">
<title>%3</title>
<polygon fill="white" stroke="transparent" points="-4,4 -4,-447 547.34,-447 547.34,4 -4,4"/>
<!-- node0 -->
<g id="node1" class="node">
<title>node0</title>
<ellipse fill="none" stroke="black" cx="395.34" cy="-425" rx="70.39" ry="18"/>
<text text-anchor="middle" x="395.34" y="-421.3" font-family="Times-Roman" font-size="14.00">sWord empty</text>
</g>
<!-- node1 -->
<g id="node2" class="node">
<title>node1</title>
<ellipse fill="none" stroke="black" cx="198.34" cy="-338" rx="67.69" ry="18"/>
<text text-anchor="middle" x="198.34" y="-334.3" font-family="Times-Roman" font-size="14.00">return rWord</text>
</g>
<!-- node0&#45;&gt;node1 -->
<g id="edge1" class="edge">
<title>node0&#45;&gt;node1</title>
<path fill="none" stroke="black" d="M361.02,-409.19C327.83,-394.87 277.42,-373.12 241.52,-357.63"/>
<polygon fill="black" stroke="black" points="242.83,-354.38 232.26,-353.64 240.06,-360.81 242.83,-354.38"/>
<text text-anchor="middle" x="321.84" y="-377.8" font-family="Times-Roman" font-size="14.00">yes</text>
</g>
<!-- node2 -->
<g id="node3" class="node">
<title>node2</title>
<ellipse fill="none" stroke="black" cx="395.34" cy="-338" rx="111.28" ry="18"/>
<text text-anchor="middle" x="395.34" y="-334.3" font-family="Times-Roman" font-size="14.00">Root matches sLetter?</text>
</g>
<!-- node0&#45;&gt;node2 -->
<g id="edge2" class="edge">
<title>node0&#45;&gt;node2</title>
<path fill="none" stroke="black" d="M395.34,-406.8C395.34,-395.16 395.34,-379.55 395.34,-366.24"/>
<polygon fill="black" stroke="black" points="398.84,-366.18 395.34,-356.18 391.84,-366.18 398.84,-366.18"/>
<text text-anchor="middle" x="404.34" y="-377.8" font-family="Times-Roman" font-size="14.00">no</text>
</g>
<!-- node2b -->
<g id="node4" class="node">
<title>node2b</title>
<ellipse fill="none" stroke="black" cx="163.34" cy="-251" rx="121.58" ry="18"/>
<text text-anchor="middle" x="163.34" y="-247.3" font-family="Times-Roman" font-size="14.00">Append sLetter to rWord</text>
</g>
<!-- node2&#45;&gt;node2b -->
<g id="edge3" class="edge">
<title>node2&#45;&gt;node2b</title>
<path fill="none" stroke="black" d="M352.52,-321.31C314.09,-307.23 257.56,-286.52 216.31,-271.41"/>
<polygon fill="black" stroke="black" points="217.29,-268.04 206.7,-267.89 214.88,-274.61 217.29,-268.04"/>
</g>
<!-- node6 -->
<g id="node8" class="node">
<title>node6</title>
<ellipse fill="none" stroke="black" cx="395.34" cy="-251" rx="74.99" ry="18"/>
<text text-anchor="middle" x="395.34" y="-247.3" font-family="Times-Roman" font-size="14.00">rWord Empty?</text>
</g>
<!-- node2&#45;&gt;node6 -->
<g id="edge8" class="edge">
<title>node2&#45;&gt;node6</title>
<path fill="none" stroke="black" d="M395.34,-319.8C395.34,-308.16 395.34,-292.55 395.34,-279.24"/>
<polygon fill="black" stroke="black" points="398.84,-279.18 395.34,-269.18 391.84,-279.18 398.84,-279.18"/>
<text text-anchor="middle" x="404.34" y="-290.8" font-family="Times-Roman" font-size="14.00">no</text>
</g>
<!-- node3 -->
<g id="node5" class="node">
<title>node3</title>
<ellipse fill="none" stroke="black" cx="116.34" cy="-164" rx="116.18" ry="18"/>
<text text-anchor="middle" x="116.34" y="-160.3" font-family="Times-Roman" font-size="14.00">Pop sLetter from sWord</text>
</g>
<!-- node2b&#45;&gt;node3 -->
<g id="edge4" class="edge">
<title>node2b&#45;&gt;node3</title>
<path fill="none" stroke="black" d="M153.83,-232.8C147.2,-220.82 138.25,-204.62 130.75,-191.06"/>
<polygon fill="black" stroke="black" points="133.74,-189.23 125.84,-182.18 127.61,-192.62 133.74,-189.23"/>
<text text-anchor="middle" x="155.84" y="-203.8" font-family="Times-Roman" font-size="14.00">yes</text>
</g>
<!-- node4 -->
<g id="node6" class="node">
<title>node4</title>
<ellipse fill="none" stroke="black" cx="268.34" cy="-91" rx="118.88" ry="18"/>
<text text-anchor="middle" x="268.34" y="-87.3" font-family="Times-Roman" font-size="14.00">Recurse on all branches</text>
</g>
<!-- node3&#45;&gt;node4 -->
<g id="edge5" class="edge">
<title>node3&#45;&gt;node4</title>
<path fill="none" stroke="black" d="M151.21,-146.71C172.86,-136.6 200.87,-123.51 224.08,-112.67"/>
<polygon fill="black" stroke="black" points="225.79,-115.74 233.37,-108.34 222.83,-109.4 225.79,-115.74"/>
</g>
<!-- node4&#45;&gt;node0 -->
<g id="edge6" class="edge">
<title>node4&#45;&gt;node0</title>
<path fill="none" stroke="black" d="M373.09,-99.68C450.8,-108.36 543.34,-126.39 543.34,-163 543.34,-339 543.34,-339 543.34,-339 543.34,-379.15 501.87,-400.62 462.83,-411.92"/>
<polygon fill="black" stroke="black" points="461.72,-408.59 452.98,-414.58 463.55,-415.35 461.72,-408.59"/>
</g>
<!-- node5 -->
<g id="node7" class="node">
<title>node5</title>
<ellipse fill="none" stroke="black" cx="268.34" cy="-18" rx="90.98" ry="18"/>
<text text-anchor="middle" x="268.34" y="-14.3" font-family="Times-Roman" font-size="14.00">Return first rWord</text>
</g>
<!-- node4&#45;&gt;node5 -->
<g id="edge7" class="edge">
<title>node4&#45;&gt;node5</title>
<path fill="none" stroke="black" d="M268.34,-72.81C268.34,-64.79 268.34,-55.05 268.34,-46.07"/>
<polygon fill="black" stroke="black" points="271.84,-46.03 268.34,-36.03 264.84,-46.03 271.84,-46.03"/>
</g>
<!-- node6&#45;&gt;node4 -->
<g id="edge9" class="edge">
<title>node6&#45;&gt;node4</title>
<path fill="none" stroke="black" d="M351.62,-236.28C325.59,-225.73 294.41,-208.41 277.34,-182 265.38,-163.5 263.83,-138.26 264.86,-119.21"/>
<polygon fill="black" stroke="black" points="268.36,-119.33 265.68,-109.08 261.39,-118.77 268.36,-119.33"/>
<text text-anchor="middle" x="289.84" y="-160.3" font-family="Times-Roman" font-size="14.00">yes</text>
</g>
<!-- node8 -->
<g id="node9" class="node">
<title>node8</title>
<ellipse fill="none" stroke="black" cx="413.34" cy="-164" rx="102.08" ry="18"/>
<text text-anchor="middle" x="413.34" y="-160.3" font-family="Times-Roman" font-size="14.00">Return empty rWord</text>
</g>
<!-- node6&#45;&gt;node8 -->
<g id="edge10" class="edge">
<title>node6&#45;&gt;node8</title>
<path fill="none" stroke="black" d="M398.98,-232.8C401.45,-221.16 404.75,-205.55 407.57,-192.24"/>
<polygon fill="black" stroke="black" points="411.05,-192.68 409.7,-182.18 404.21,-191.23 411.05,-192.68"/>
<text text-anchor="middle" x="415.34" y="-203.8" font-family="Times-Roman" font-size="14.00">no</text>
</g>
</g>
</svg>
