<?xml version="1.0" encoding="UTF-8" standalone="no"?>
<!DOCTYPE svg PUBLIC "-//W3C//DTD SVG 1.1//EN"
 "http://www.w3.org/Graphics/SVG/1.1/DTD/svg11.dtd">
<!-- Generated by graphviz version 2.43.0 (0)
 -->
<!-- Title: %3 Pages: 1 -->
<svg width="102pt" height="188pt"
 viewBox="0.00 0.00 101.99 188.00" xmlns="http://www.w3.org/2000/svg" xmlns:xlink="http://www.w3.org/1999/xlink">
<g id="graph0" class="graph" transform="scale(1 1) rotate(0) translate(4 184)">
<title>%3</title>
<polygon fill="white" stroke="transparent" points="-4,4 -4,-184 97.99,-184 97.99,4 -4,4"/>
<!-- Body -->
<g id="node1" class="node">
<title>Body</title>
<ellipse fill="none" stroke="black" cx="59.55" cy="-162" rx="33.6" ry="18"/>
<text text-anchor="middle" x="59.55" y="-158.3" font-family="Times-Roman" font-size="14.00">Body</text>
</g>
<!-- Soul -->
<g id="node2" class="node">
<title>Soul</title>
<ellipse fill="none" stroke="black" cx="30.55" cy="-90" rx="30.59" ry="18"/>
<text text-anchor="middle" x="30.55" y="-86.3" font-family="Times-Roman" font-size="14.00">Soul</text>
</g>
<!-- Body&#45;&gt;Soul -->
<g id="edge1" class="edge">
<title>Body&#45;&gt;Soul</title>
<path fill="none" stroke="black" d="M52.53,-144.05C49.18,-135.97 45.1,-126.12 41.36,-117.11"/>
<polygon fill="black" stroke="black" points="44.56,-115.69 37.5,-107.79 38.1,-118.37 44.56,-115.69"/>
</g>
<!-- Spirit -->
<g id="node3" class="node">
<title>Spirit</title>
<ellipse fill="none" stroke="black" cx="59.55" cy="-18" rx="34.39" ry="18"/>
<text text-anchor="middle" x="59.55" y="-14.3" font-family="Times-Roman" font-size="14.00">Spirit</text>
</g>
<!-- Soul&#45;&gt;Spirit -->
<g id="edge2" class="edge">
<title>Soul&#45;&gt;Spirit</title>
<path fill="none" stroke="black" d="M37.42,-72.41C40.77,-64.34 44.87,-54.43 48.63,-45.35"/>
<polygon fill="black" stroke="black" points="51.93,-46.53 52.52,-35.96 45.46,-43.86 51.93,-46.53"/>
</g>
<!-- Spirit&#45;&gt;Body -->
<g id="edge3" class="edge">
<title>Spirit&#45;&gt;Body</title>
<path fill="none" stroke="black" d="M64.01,-36.05C66.48,-46.37 69.3,-59.85 70.55,-72 72.18,-87.92 72.18,-92.08 70.55,-108 69.67,-116.54 68.02,-125.74 66.25,-134.04"/>
<polygon fill="black" stroke="black" points="62.8,-133.43 64.01,-143.95 69.63,-134.97 62.8,-133.43"/>
</g>
</g>
</svg>
