<?xml version="1.0" encoding="UTF-8" standalone="no"?>
<!DOCTYPE svg PUBLIC "-//W3C//DTD SVG 1.1//EN"
 "http://www.w3.org/Graphics/SVG/1.1/DTD/svg11.dtd">
<!-- Generated by graphviz version 2.43.0 (0)
 -->
<!-- Title: %3 Pages: 1 -->
<svg width="105pt" height="218pt"
 viewBox="0.00 0.00 105.10 218.00" xmlns="http://www.w3.org/2000/svg" xmlns:xlink="http://www.w3.org/1999/xlink">
<g id="graph0" class="graph" transform="scale(1 1) rotate(0) translate(4 214)">
<title>%3</title>
<polygon fill="white" stroke="transparent" points="-4,4 -4,-214 101.1,-214 101.1,4 -4,4"/>
<!-- Feelings -->
<g id="node1" class="node">
<title>Feelings</title>
<ellipse fill="none" stroke="black" cx="48.1" cy="-192" rx="48.19" ry="18"/>
<text text-anchor="middle" x="48.1" y="-188.3" font-family="Times-Roman" font-size="14.00">Feelings</text>
</g>
<!-- Faith -->
<g id="node2" class="node">
<title>Faith</title>
<ellipse fill="none" stroke="black" cx="48.1" cy="-105" rx="32.49" ry="18"/>
<text text-anchor="middle" x="48.1" y="-101.3" font-family="Times-Roman" font-size="14.00">Faith</text>
</g>
<!-- Feelings&#45;&gt;Faith -->
<g id="edge1" class="edge">
<title>Feelings&#45;&gt;Faith</title>
<path fill="none" stroke="black" d="M48.1,-173.8C48.1,-162.16 48.1,-146.55 48.1,-133.24"/>
<polygon fill="black" stroke="black" points="51.6,-133.18 48.1,-123.18 44.6,-133.18 51.6,-133.18"/>
<text text-anchor="middle" x="72.6" y="-144.8" font-family="Times-Roman" font-size="14.00">follows</text>
</g>
<!-- Fact -->
<g id="node3" class="node">
<title>Fact</title>
<ellipse fill="none" stroke="black" cx="48.1" cy="-18" rx="28.7" ry="18"/>
<text text-anchor="middle" x="48.1" y="-14.3" font-family="Times-Roman" font-size="14.00">Fact</text>
</g>
<!-- Faith&#45;&gt;Fact -->
<g id="edge2" class="edge">
<title>Faith&#45;&gt;Fact</title>
<path fill="none" stroke="black" d="M48.1,-86.8C48.1,-75.16 48.1,-59.55 48.1,-46.24"/>
<polygon fill="black" stroke="black" points="51.6,-46.18 48.1,-36.18 44.6,-46.18 51.6,-46.18"/>
<text text-anchor="middle" x="61.6" y="-57.8" font-family="Times-Roman" font-size="14.00">fact</text>
</g>
</g>
</svg>
