<?xml version="1.0" encoding="UTF-8" standalone="no"?>
<!DOCTYPE svg PUBLIC "-//W3C//DTD SVG 1.1//EN"
 "http://www.w3.org/Graphics/SVG/1.1/DTD/svg11.dtd">
<!-- Generated by graphviz version 2.43.0 (0)
 -->
<!-- Title: %3 Pages: 1 -->
<svg width="422pt" height="218pt"
 viewBox="0.00 0.00 421.58 218.00" xmlns="http://www.w3.org/2000/svg" xmlns:xlink="http://www.w3.org/1999/xlink">
<g id="graph0" class="graph" transform="scale(1 1) rotate(0) translate(4 214)">
<title>%3</title>
<polygon fill="white" stroke="transparent" points="-4,4 -4,-214 417.58,-214 417.58,4 -4,4"/>
<!-- God&#39;s grace -->
<g id="node1" class="node">
<title>God&#39;s grace</title>
<ellipse fill="none" stroke="black" cx="81.24" cy="-192" rx="64.19" ry="18"/>
<text text-anchor="middle" x="81.24" y="-188.3" font-family="Times-Roman" font-size="14.00">God&#39;s grace</text>
</g>
<!-- Spiritual Riches -->
<g id="node2" class="node">
<title>Spiritual Riches</title>
<ellipse fill="none" stroke="black" cx="81.24" cy="-105" rx="81.49" ry="18"/>
<text text-anchor="middle" x="81.24" y="-101.3" font-family="Times-Roman" font-size="14.00">Spiritual Riches</text>
</g>
<!-- God&#39;s grace&#45;&gt;Spiritual Riches -->
<g id="edge1" class="edge">
<title>God&#39;s grace&#45;&gt;Spiritual Riches</title>
<path fill="none" stroke="black" d="M81.24,-173.8C81.24,-162.16 81.24,-146.55 81.24,-133.24"/>
<polygon fill="black" stroke="black" points="84.74,-133.18 81.24,-123.18 77.74,-133.18 84.74,-133.18"/>
<text text-anchor="middle" x="113.24" y="-144.8" font-family="Times-Roman" font-size="14.00">produces</text>
</g>
<!-- Spirit Riches -->
<g id="node3" class="node">
<title>Spirit Riches</title>
<ellipse fill="none" stroke="black" cx="297.24" cy="-192" rx="67.69" ry="18"/>
<text text-anchor="middle" x="297.24" y="-188.3" font-family="Times-Roman" font-size="14.00">Spirit Riches</text>
</g>
<!-- Heart of Righteousness -->
<g id="node4" class="node">
<title>Heart of Righteousness</title>
<ellipse fill="none" stroke="black" cx="297.24" cy="-105" rx="116.18" ry="18"/>
<text text-anchor="middle" x="297.24" y="-101.3" font-family="Times-Roman" font-size="14.00">Heart of Righteousness</text>
</g>
<!-- Spirit Riches&#45;&gt;Heart of Righteousness -->
<g id="edge2" class="edge">
<title>Spirit Riches&#45;&gt;Heart of Righteousness</title>
<path fill="none" stroke="black" d="M297.24,-173.8C297.24,-162.16 297.24,-146.55 297.24,-133.24"/>
<polygon fill="black" stroke="black" points="300.74,-133.18 297.24,-123.18 293.74,-133.18 300.74,-133.18"/>
<text text-anchor="middle" x="329.24" y="-144.8" font-family="Times-Roman" font-size="14.00">produces</text>
</g>
<!-- Good works -->
<g id="node5" class="node">
<title>Good works</title>
<ellipse fill="none" stroke="black" cx="297.24" cy="-18" rx="63.89" ry="18"/>
<text text-anchor="middle" x="297.24" y="-14.3" font-family="Times-Roman" font-size="14.00">Good works</text>
</g>
<!-- Heart of Righteousness&#45;&gt;Good works -->
<g id="edge3" class="edge">
<title>Heart of Righteousness&#45;&gt;Good works</title>
<path fill="none" stroke="black" d="M297.24,-86.8C297.24,-75.16 297.24,-59.55 297.24,-46.24"/>
<polygon fill="black" stroke="black" points="300.74,-46.18 297.24,-36.18 293.74,-46.18 300.74,-46.18"/>
<text text-anchor="middle" x="329.24" y="-57.8" font-family="Times-Roman" font-size="14.00">produces</text>
</g>
</g>
</svg>
