<?xml version="1.0" encoding="UTF-8" standalone="no"?>
<!DOCTYPE svg PUBLIC "-//W3C//DTD SVG 1.1//EN"
 "http://www.w3.org/Graphics/SVG/1.1/DTD/svg11.dtd">
<!-- Generated by graphviz version 2.43.0 (0)
 -->
<!-- Title: %3 Pages: 1 -->
<svg width="249pt" height="218pt"
 viewBox="0.00 0.00 249.39 218.00" xmlns="http://www.w3.org/2000/svg" xmlns:xlink="http://www.w3.org/1999/xlink">
<g id="graph0" class="graph" transform="scale(1 1) rotate(0) translate(4 214)">
<title>%3</title>
<polygon fill="white" stroke="transparent" points="-4,4 -4,-214 245.39,-214 245.39,4 -4,4"/>
<!-- Christ -->
<g id="node1" class="node">
<title>Christ</title>
<ellipse fill="none" stroke="black" cx="88.39" cy="-105" rx="37.89" ry="18"/>
<text text-anchor="middle" x="88.39" y="-101.3" font-family="Times-Roman" font-size="14.00">Christ</text>
</g>
<!-- Man In Christ +R -->
<g id="node2" class="node">
<title>Man In Christ +R</title>
<ellipse fill="none" stroke="black" cx="88.39" cy="-18" rx="88.28" ry="18"/>
<text text-anchor="middle" x="88.39" y="-14.3" font-family="Times-Roman" font-size="14.00">Man In Christ +R</text>
</g>
<!-- Christ&#45;&gt;Man In Christ +R -->
<g id="edge1" class="edge">
<title>Christ&#45;&gt;Man In Christ +R</title>
<path fill="none" stroke="black" d="M88.39,-86.8C88.39,-75.16 88.39,-59.55 88.39,-46.24"/>
<polygon fill="black" stroke="black" points="91.89,-46.18 88.39,-36.18 84.89,-46.18 91.89,-46.18"/>
<text text-anchor="middle" x="164.89" y="-57.8" font-family="Times-Roman" font-size="14.00">Imputed righteosness</text>
</g>
<!-- Man In Adam &#45;R -->
<g id="node3" class="node">
<title>Man In Adam &#45;R</title>
<ellipse fill="none" stroke="black" cx="88.39" cy="-192" rx="83.39" ry="18"/>
<text text-anchor="middle" x="88.39" y="-188.3" font-family="Times-Roman" font-size="14.00">Man In Adam &#45;R</text>
</g>
<!-- Man In Adam &#45;R&#45;&gt;Christ -->
<g id="edge2" class="edge">
<title>Man In Adam &#45;R&#45;&gt;Christ</title>
<path fill="none" stroke="black" d="M88.39,-173.8C88.39,-162.16 88.39,-146.55 88.39,-133.24"/>
<polygon fill="black" stroke="black" points="91.89,-133.18 88.39,-123.18 84.89,-133.18 91.89,-133.18"/>
<text text-anchor="middle" x="129.89" y="-144.8" font-family="Times-Roman" font-size="14.00">Forgiveness</text>
</g>
</g>
</svg>
