<?xml version="1.0" encoding="UTF-8" standalone="no"?>
<!DOCTYPE svg PUBLIC "-//W3C//DTD SVG 1.1//EN"
 "http://www.w3.org/Graphics/SVG/1.1/DTD/svg11.dtd">
<!-- Generated by graphviz version 2.43.0 (0)
 -->
<!-- Title: %3 Pages: 1 -->
<svg width="263pt" height="305pt"
 viewBox="0.00 0.00 263.40 305.00" xmlns="http://www.w3.org/2000/svg" xmlns:xlink="http://www.w3.org/1999/xlink">
<g id="graph0" class="graph" transform="scale(1 1) rotate(0) translate(4 301)">
<title>%3</title>
<polygon fill="white" stroke="transparent" points="-4,4 -4,-301 259.4,-301 259.4,4 -4,4"/>
<!-- Hell -->
<g id="node1" class="node">
<title>Hell</title>
<ellipse fill="none" stroke="black" cx="101.4" cy="-279" rx="27.9" ry="18"/>
<text text-anchor="middle" x="101.4" y="-275.3" font-family="Times-Roman" font-size="14.00">Hell</text>
</g>
<!-- Cross -->
<g id="node2" class="node">
<title>Cross</title>
<ellipse fill="none" stroke="black" cx="101.4" cy="-192" rx="36" ry="18"/>
<text text-anchor="middle" x="101.4" y="-188.3" font-family="Times-Roman" font-size="14.00">Cross</text>
</g>
<!-- Hell&#45;&gt;Cross -->
<g id="edge1" class="edge">
<title>Hell&#45;&gt;Cross</title>
<path fill="none" stroke="black" d="M101.4,-260.8C101.4,-249.16 101.4,-233.55 101.4,-220.24"/>
<polygon fill="black" stroke="black" points="104.9,-220.18 101.4,-210.18 97.9,-220.18 104.9,-220.18"/>
<text text-anchor="middle" x="132.9" y="-231.8" font-family="Times-Roman" font-size="14.00">salvation</text>
</g>
<!-- In Christ -->
<g id="node3" class="node">
<title>In Christ</title>
<ellipse fill="none" stroke="black" cx="49.4" cy="-105" rx="49.29" ry="18"/>
<text text-anchor="middle" x="49.4" y="-101.3" font-family="Times-Roman" font-size="14.00">In Christ</text>
</g>
<!-- Cross&#45;&gt;In Christ -->
<g id="edge2" class="edge">
<title>Cross&#45;&gt;In Christ</title>
<path fill="none" stroke="black" d="M89.26,-174.91C85.03,-169.06 80.35,-162.34 76.4,-156 71.64,-148.38 66.86,-139.86 62.66,-132.04"/>
<polygon fill="black" stroke="black" points="65.64,-130.18 57.88,-122.96 59.45,-133.44 65.64,-130.18"/>
<text text-anchor="middle" x="103.9" y="-144.8" font-family="Times-Roman" font-size="14.00">Position</text>
</g>
<!-- Filling of HS -->
<g id="node4" class="node">
<title>Filling of HS</title>
<ellipse fill="none" stroke="black" cx="180.4" cy="-105" rx="63.89" ry="18"/>
<text text-anchor="middle" x="180.4" y="-101.3" font-family="Times-Roman" font-size="14.00">Filling of HS</text>
</g>
<!-- Cross&#45;&gt;Filling of HS -->
<g id="edge3" class="edge">
<title>Cross&#45;&gt;Filling of HS</title>
<path fill="none" stroke="black" d="M115.89,-175.41C127.61,-162.79 144.33,-144.8 157.81,-130.3"/>
<polygon fill="black" stroke="black" points="160.67,-132.36 164.92,-122.65 155.55,-127.6 160.67,-132.36"/>
<text text-anchor="middle" x="181.9" y="-144.8" font-family="Times-Roman" font-size="14.00">Fellowship</text>
</g>
<!-- OOF -->
<g id="node5" class="node">
<title>OOF</title>
<ellipse fill="none" stroke="black" cx="180.4" cy="-18" rx="30.59" ry="18"/>
<text text-anchor="middle" x="180.4" y="-14.3" font-family="Times-Roman" font-size="14.00">OOF</text>
</g>
<!-- Filling of HS&#45;&gt;OOF -->
<g id="edge4" class="edge">
<title>Filling of HS&#45;&gt;OOF</title>
<path fill="none" stroke="black" d="M167.2,-87.26C161.27,-77.72 156.23,-65.43 159.4,-54 160.35,-50.55 161.75,-47.1 163.37,-43.78"/>
<polygon fill="black" stroke="black" points="166.52,-45.32 168.39,-34.89 160.43,-41.88 166.52,-45.32"/>
<text text-anchor="middle" x="169.9" y="-57.8" font-family="Times-Roman" font-size="14.00">sin</text>
</g>
<!-- OOF&#45;&gt;Filling of HS -->
<g id="edge5" class="edge">
<title>OOF&#45;&gt;Filling of HS</title>
<path fill="none" stroke="black" d="M180.4,-36.18C180.4,-47.81 180.4,-63.42 180.4,-76.73"/>
<polygon fill="black" stroke="black" points="176.9,-76.8 180.4,-86.8 183.9,-76.8 176.9,-76.8"/>
<text text-anchor="middle" x="217.9" y="-57.8" font-family="Times-Roman" font-size="14.00">confession</text>
</g>
</g>
</svg>
