<?xml version="1.0" encoding="UTF-8" standalone="no"?>
<!DOCTYPE svg PUBLIC "-//W3C//DTD SVG 1.1//EN"
 "http://www.w3.org/Graphics/SVG/1.1/DTD/svg11.dtd">
<!-- Generated by graphviz version 2.43.0 (0)
 -->
<!-- Title: %3 Pages: 1 -->
<svg width="310pt" height="204pt"
 viewBox="0.00 0.00 309.80 204.00" xmlns="http://www.w3.org/2000/svg" xmlns:xlink="http://www.w3.org/1999/xlink">
<g id="graph0" class="graph" transform="scale(1 1) rotate(0) translate(4 200)">
<title>%3</title>
<polygon fill="white" stroke="transparent" points="-4,4 -4,-200 305.8,-200 305.8,4 -4,4"/>
<!-- Body -->
<g id="node1" class="node">
<title>Body</title>
<ellipse fill="none" stroke="black" cx="33.8" cy="-178" rx="33.6" ry="18"/>
<text text-anchor="middle" x="33.8" y="-174.3" font-family="Times-Roman" font-size="14.00">Body</text>
</g>
<!-- Soul -->
<g id="node2" class="node">
<title>Soul</title>
<ellipse fill="none" stroke="black" cx="33.8" cy="-105" rx="30.59" ry="18"/>
<text text-anchor="middle" x="33.8" y="-101.3" font-family="Times-Roman" font-size="14.00">Soul</text>
</g>
<!-- Body&#45;&gt;Soul -->
<g id="edge1" class="edge">
<title>Body&#45;&gt;Soul</title>
<path fill="none" stroke="black" d="M33.8,-159.81C33.8,-151.79 33.8,-142.05 33.8,-133.07"/>
<polygon fill="black" stroke="black" points="37.3,-133.03 33.8,-123.03 30.3,-133.03 37.3,-133.03"/>
</g>
<!-- Spirit -->
<g id="node3" class="node">
<title>Spirit</title>
<ellipse fill="none" stroke="black" cx="71.8" cy="-18" rx="34.39" ry="18"/>
<text text-anchor="middle" x="71.8" y="-14.3" font-family="Times-Roman" font-size="14.00">Spirit</text>
</g>
<!-- Soul&#45;&gt;Spirit -->
<g id="edge2" class="edge">
<title>Soul&#45;&gt;Spirit</title>
<path fill="none" stroke="black" d="M41.3,-87.21C46.67,-75.22 53.98,-58.85 60.1,-45.16"/>
<polygon fill="black" stroke="black" points="63.42,-46.32 64.31,-35.76 57.03,-43.46 63.42,-46.32"/>
</g>
<!-- Spirit&#45;&gt;Spirit -->
<g id="edge3" class="edge">
<title>Spirit&#45;&gt;Spirit</title>
<path fill="none" stroke="black" d="M103.03,-25.86C114.66,-26.12 124.24,-23.5 124.24,-18 124.24,-14.22 119.72,-11.8 113.1,-10.74"/>
<polygon fill="black" stroke="black" points="113.22,-7.24 103.03,-10.14 112.8,-14.23 113.22,-7.24"/>
<text text-anchor="middle" x="188.24" y="-14.3" font-family="Times-Roman" font-size="14.00">divine combustion</text>
</g>
<!-- HS -->
<g id="node4" class="node">
<title>HS</title>
<ellipse fill="none" stroke="black" cx="109.8" cy="-105" rx="27" ry="18"/>
<text text-anchor="middle" x="109.8" y="-101.3" font-family="Times-Roman" font-size="14.00">HS</text>
</g>
<!-- HS&#45;&gt;Spirit -->
<g id="edge4" class="edge">
<title>HS&#45;&gt;Spirit</title>
<path fill="none" stroke="black" d="M102.47,-87.61C97.09,-75.58 89.67,-58.98 83.48,-45.13"/>
<polygon fill="black" stroke="black" points="86.51,-43.33 79.23,-35.63 80.12,-46.19 86.51,-43.33"/>
<text text-anchor="middle" x="197.3" y="-57.8" font-family="Times-Roman" font-size="14.00">God combines with your spirit</text>
</g>
</g>
</svg>
