<?xml version="1.0" encoding="UTF-8" standalone="no"?>
<!DOCTYPE svg PUBLIC "-//W3C//DTD SVG 1.1//EN"
 "http://www.w3.org/Graphics/SVG/1.1/DTD/svg11.dtd">
<!-- Generated by graphviz version 2.43.0 (0)
 -->
<!-- Title: %3 Pages: 1 -->
<svg width="559pt" height="204pt"
 viewBox="0.00 0.00 558.94 204.00" xmlns="http://www.w3.org/2000/svg" xmlns:xlink="http://www.w3.org/1999/xlink">
<g id="graph0" class="graph" transform="scale(1 1) rotate(0) translate(4 200)">
<title>%3</title>
<polygon fill="white" stroke="transparent" points="-4,4 -4,-200 554.94,-200 554.94,4 -4,4"/>
<!-- Sex -->
<g id="node1" class="node">
<title>Sex</title>
<ellipse fill="none" stroke="black" cx="27.3" cy="-178" rx="27.1" ry="18"/>
<text text-anchor="middle" x="27.3" y="-174.3" font-family="Times-Roman" font-size="14.00">Sex</text>
</g>
<!-- Throne -->
<g id="node2" class="node">
<title>Throne</title>
<ellipse fill="none" stroke="black" cx="264.3" cy="-105" rx="42.49" ry="18"/>
<text text-anchor="middle" x="264.3" y="-101.3" font-family="Times-Roman" font-size="14.00">Throne</text>
</g>
<!-- Sex&#45;&gt;Throne -->
<g id="edge1" class="edge">
<title>Sex&#45;&gt;Throne</title>
<path fill="none" stroke="black" d="M48.57,-166.49C53.65,-164.19 59.11,-161.88 64.3,-160 115.74,-141.38 176.66,-125.83 217.63,-116.26"/>
<polygon fill="black" stroke="black" points="218.65,-119.62 227.6,-113.96 217.07,-112.8 218.65,-119.62"/>
</g>
<!-- HS -->
<g id="node7" class="node">
<title>HS</title>
<ellipse fill="none" stroke="black" cx="228.3" cy="-18" rx="27" ry="18"/>
<text text-anchor="middle" x="228.3" y="-14.3" font-family="Times-Roman" font-size="14.00">HS</text>
</g>
<!-- Throne&#45;&gt;HS -->
<g id="edge6" class="edge">
<title>Throne&#45;&gt;HS</title>
<path fill="none" stroke="black" d="M253.16,-87.37C249.69,-81.7 246.05,-75.22 243.3,-69 240.08,-61.7 237.3,-53.52 235.04,-45.91"/>
<polygon fill="black" stroke="black" points="238.34,-44.73 232.28,-36.04 231.6,-46.61 238.34,-44.73"/>
<text text-anchor="middle" x="261.3" y="-57.8" font-family="Times-Roman" font-size="14.00">Filled</text>
</g>
<!-- Self -->
<g id="node8" class="node">
<title>Self</title>
<ellipse fill="none" stroke="black" cx="301.3" cy="-18" rx="27.9" ry="18"/>
<text text-anchor="middle" x="301.3" y="-14.3" font-family="Times-Roman" font-size="14.00">Self</text>
</g>
<!-- Throne&#45;&gt;Self -->
<g id="edge7" class="edge">
<title>Throne&#45;&gt;Self</title>
<path fill="none" stroke="black" d="M271.61,-87.21C276.86,-75.14 284.04,-58.64 290.03,-44.89"/>
<polygon fill="black" stroke="black" points="293.35,-46.04 294.13,-35.47 286.93,-43.24 293.35,-46.04"/>
<text text-anchor="middle" x="300.8" y="-57.8" font-family="Times-Roman" font-size="14.00">OOF</text>
</g>
<!-- Business -->
<g id="node3" class="node">
<title>Business</title>
<ellipse fill="none" stroke="black" cx="124.3" cy="-178" rx="51.19" ry="18"/>
<text text-anchor="middle" x="124.3" y="-174.3" font-family="Times-Roman" font-size="14.00">Business</text>
</g>
<!-- Business&#45;&gt;Throne -->
<g id="edge2" class="edge">
<title>Business&#45;&gt;Throne</title>
<path fill="none" stroke="black" d="M152.29,-162.8C174.41,-151.58 205.41,-135.86 229.19,-123.8"/>
<polygon fill="black" stroke="black" points="230.91,-126.86 238.24,-119.21 227.74,-120.62 230.91,-126.86"/>
</g>
<!-- Relationships -->
<g id="node4" class="node">
<title>Relationships</title>
<ellipse fill="none" stroke="black" cx="264.3" cy="-178" rx="70.69" ry="18"/>
<text text-anchor="middle" x="264.3" y="-174.3" font-family="Times-Roman" font-size="14.00">Relationships</text>
</g>
<!-- Relationships&#45;&gt;Throne -->
<g id="edge3" class="edge">
<title>Relationships&#45;&gt;Throne</title>
<path fill="none" stroke="black" d="M264.3,-159.81C264.3,-151.79 264.3,-142.05 264.3,-133.07"/>
<polygon fill="black" stroke="black" points="267.8,-133.03 264.3,-123.03 260.8,-133.03 267.8,-133.03"/>
</g>
<!-- Financial -->
<g id="node5" class="node">
<title>Financial</title>
<ellipse fill="none" stroke="black" cx="403.3" cy="-178" rx="50.09" ry="18"/>
<text text-anchor="middle" x="403.3" y="-174.3" font-family="Times-Roman" font-size="14.00">Financial</text>
</g>
<!-- Financial&#45;&gt;Throne -->
<g id="edge4" class="edge">
<title>Financial&#45;&gt;Throne</title>
<path fill="none" stroke="black" d="M375.5,-162.8C353.68,-151.66 323.15,-136.06 299.6,-124.03"/>
<polygon fill="black" stroke="black" points="301.13,-120.88 290.63,-119.45 297.94,-127.12 301.13,-120.88"/>
</g>
<!-- Family -->
<g id="node6" class="node">
<title>Family</title>
<ellipse fill="none" stroke="black" cx="511.3" cy="-178" rx="39.79" ry="18"/>
<text text-anchor="middle" x="511.3" y="-174.3" font-family="Times-Roman" font-size="14.00">Family</text>
</g>
<!-- Family&#45;&gt;Throne -->
<g id="edge5" class="edge">
<title>Family&#45;&gt;Throne</title>
<path fill="none" stroke="black" d="M481.08,-166.16C474.89,-164.04 468.4,-161.89 462.3,-160 410.37,-143.93 350.01,-127.83 309.71,-117.45"/>
<polygon fill="black" stroke="black" points="310.47,-114.03 299.92,-114.94 308.73,-120.81 310.47,-114.03"/>
</g>
</g>
</svg>
